<?xml version="1.0" encoding="UTF-8"?>
<svg xmlns="http://www.w3.org/2000/svg" viewBox="0 0 480 270" width="480" height="270">
<rect width="100%" height="100%" fill="#f5f5f7"/>
<rect x="100" y="35" width="280" height="195" fill="none" stroke="#0071e3" stroke-width="3" rx="4"/>
<rect x="100" y="35" width="280" height="195" fill="#0071e3" fill-opacity="0.06" rx="4"/>
<g fill="#86868b" stroke="none">
<circle cx="240" cy="127.8" r="12.100000000000001"/>
<rect x="225.7" y="143.2" width="28.6" height="46.2" rx="3"/>
<rect x="222.4" y="189.4" width="11" height="41.800000000000004" rx="3"/>
<rect x="246.6" y="189.4" width="11" height="41.800000000000004" rx="3"/>
</g>
<g transform="translate(240,235) rotate(0)">
<rect x="-18" y="-12" width="36" height="24" rx="4" fill="#1d1d1f"/>
<circle cx="0" cy="0" r="8" fill="#0071e3"/>
<rect x="18" y="-6" width="10" height="12" rx="2" fill="#1d1d1f"/>
</g>
<line x1="240" y1="228" x2="240" y2="200" stroke="#0071e3" stroke-width="3" stroke-linecap="round"/>
<polygon points="240,200 246,212 234,212" fill="#0071e3"/>
<text x="240" y="248" text-anchor="middle" font-family="system-ui,sans-serif" font-size="13" fill="#86868b">低角度仰拍</text>
</svg>