<?xml version="1.0" encoding="UTF-8"?>
<svg xmlns="http://www.w3.org/2000/svg" viewBox="0 0 480 270" width="480" height="270">
<rect width="100%" height="100%" fill="#f5f5f7"/>
<rect x="60" y="60" width="360" height="130" fill="#3a3a3c" rx="6"/><circle cx="70" cy="75" r="1.2" fill="#fff" opacity="0.08"/><circle cx="87" cy="88" r="1.2" fill="#fff" opacity="0.12"/><circle cx="104" cy="101" r="1.2" fill="#fff" opacity="0.16"/><circle cx="121" cy="114" r="1.2" fill="#fff" opacity="0.2"/><circle cx="138" cy="127" r="1.2" fill="#fff" opacity="0.24"/><circle cx="155" cy="140" r="1.2" fill="#fff" opacity="0.08"/><circle cx="172" cy="153" r="1.2" fill="#fff" opacity="0.12"/><circle cx="189" cy="166" r="1.2" fill="#fff" opacity="0.16"/><circle cx="206" cy="79" r="1.2" fill="#fff" opacity="0.2"/><circle cx="223" cy="92" r="1.2" fill="#fff" opacity="0.24"/><circle cx="240" cy="105" r="1.2" fill="#fff" opacity="0.08"/><circle cx="257" cy="118" r="1.2" fill="#fff" opacity="0.12"/><circle cx="274" cy="131" r="1.2" fill="#fff" opacity="0.16"/><circle cx="291" cy="144" r="1.2" fill="#fff" opacity="0.2"/><circle cx="308" cy="157" r="1.2" fill="#fff" opacity="0.24"/><circle cx="325" cy="170" r="1.2" fill="#fff" opacity="0.08"/><circle cx="342" cy="83" r="1.2" fill="#fff" opacity="0.12"/><circle cx="359" cy="96" r="1.2" fill="#fff" opacity="0.16"/><circle cx="376" cy="109" r="1.2" fill="#fff" opacity="0.2"/><circle cx="393" cy="122" r="1.2" fill="#fff" opacity="0.24"/><circle cx="70" cy="135" r="1.2" fill="#fff" opacity="0.08"/><circle cx="87" cy="148" r="1.2" fill="#fff" opacity="0.12"/><circle cx="104" cy="161" r="1.2" fill="#fff" opacity="0.16"/><circle cx="121" cy="174" r="1.2" fill="#fff" opacity="0.2"/><circle cx="138" cy="87" r="1.2" fill="#fff" opacity="0.24"/><circle cx="155" cy="100" r="1.2" fill="#fff" opacity="0.08"/><circle cx="172" cy="113" r="1.2" fill="#fff" opacity="0.12"/><circle cx="189" cy="126" r="1.2" fill="#fff" opacity="0.16"/><circle cx="206" cy="139" r="1.2" fill="#fff" opacity="0.2"/><circle cx="223" cy="152" r="1.2" fill="#fff" opacity="0.24"/><circle cx="240" cy="165" r="1.2" fill="#fff" opacity="0.08"/><circle cx="257" cy="78" r="1.2" fill="#fff" opacity="0.12"/><circle cx="274" cy="91" r="1.2" fill="#fff" opacity="0.16"/><circle cx="291" cy="104" r="1.2" fill="#fff" opacity="0.2"/><circle cx="308" cy="117" r="1.2" fill="#fff" opacity="0.24"/><circle cx="325" cy="130" r="1.2" fill="#fff" opacity="0.08"/><circle cx="342" cy="143" r="1.2" fill="#fff" opacity="0.12"/><circle cx="359" cy="156" r="1.2" fill="#fff" opacity="0.16"/><circle cx="376" cy="169" r="1.2" fill="#fff" opacity="0.2"/><circle cx="393" cy="82" r="1.2" fill="#fff" opacity="0.24"/><circle cx="70" cy="95" r="1.2" fill="#fff" opacity="0.08"/><circle cx="87" cy="108" r="1.2" fill="#fff" opacity="0.12"/><circle cx="104" cy="121" r="1.2" fill="#fff" opacity="0.16"/><circle cx="121" cy="134" r="1.2" fill="#fff" opacity="0.2"/><circle cx="138" cy="147" r="1.2" fill="#fff" opacity="0.24"/><circle cx="155" cy="160" r="1.2" fill="#fff" opacity="0.08"/><circle cx="172" cy="173" r="1.2" fill="#fff" opacity="0.12"/><circle cx="189" cy="86" r="1.2" fill="#fff" opacity="0.16"/><circle cx="206" cy="99" r="1.2" fill="#fff" opacity="0.2"/><circle cx="223" cy="112" r="1.2" fill="#fff" opacity="0.24"/><circle cx="240" cy="125" r="1.2" fill="#fff" opacity="0.08"/><circle cx="257" cy="138" r="1.2" fill="#fff" opacity="0.12"/><circle cx="274" cy="151" r="1.2" fill="#fff" opacity="0.16"/><circle cx="291" cy="164" r="1.2" fill="#fff" opacity="0.2"/><circle cx="308" cy="77" r="1.2" fill="#fff" opacity="0.24"/><circle cx="325" cy="90" r="1.2" fill="#fff" opacity="0.08"/><circle cx="342" cy="103" r="1.2" fill="#fff" opacity="0.12"/><circle cx="359" cy="116" r="1.2" fill="#fff" opacity="0.16"/><circle cx="376" cy="129" r="1.2" fill="#fff" opacity="0.2"/><circle cx="393" cy="142" r="1.2" fill="#fff" opacity="0.24"/><circle cx="70" cy="155" r="1.2" fill="#fff" opacity="0.08"/><circle cx="87" cy="168" r="1.2" fill="#fff" opacity="0.12"/><circle cx="104" cy="81" r="1.2" fill="#fff" opacity="0.16"/><circle cx="121" cy="94" r="1.2" fill="#fff" opacity="0.2"/><circle cx="138" cy="107" r="1.2" fill="#fff" opacity="0.24"/><circle cx="155" cy="120" r="1.2" fill="#fff" opacity="0.08"/><circle cx="172" cy="133" r="1.2" fill="#fff" opacity="0.12"/><circle cx="189" cy="146" r="1.2" fill="#fff" opacity="0.16"/><circle cx="206" cy="159" r="1.2" fill="#fff" opacity="0.2"/><circle cx="223" cy="172" r="1.2" fill="#fff" opacity="0.24"/><circle cx="240" cy="85" r="1.2" fill="#fff" opacity="0.08"/><circle cx="257" cy="98" r="1.2" fill="#fff" opacity="0.12"/><circle cx="274" cy="111" r="1.2" fill="#fff" opacity="0.16"/><circle cx="291" cy="124" r="1.2" fill="#fff" opacity="0.2"/><circle cx="308" cy="137" r="1.2" fill="#fff" opacity="0.24"/><circle cx="325" cy="150" r="1.2" fill="#fff" opacity="0.08"/><circle cx="342" cy="163" r="1.2" fill="#fff" opacity="0.12"/><circle cx="359" cy="76" r="1.2" fill="#fff" opacity="0.16"/><circle cx="376" cy="89" r="1.2" fill="#fff" opacity="0.2"/><circle cx="393" cy="102" r="1.2" fill="#fff" opacity="0.24"/><text x="240" y="248" text-anchor="middle" font-family="system-ui,sans-serif" font-size="13" fill="#86868b">胶片颗粒</text>
</svg>